<svg width="1194.000000" height="194.000000" viewBox="0 0 1194 194" fill="none" xmlns="http://www.w3.org/2000/svg" xmlns:xlink="http://www.w3.org/1999/xlink">
	<desc>
			Created with Pixso.
	</desc>
	<defs/>
	<path id="Линия 1" d="M575.59 16.31L558.62 18.64L559.03 21.61L576 19.28L575.59 16.31ZM609.05 12.04L592.62 14.08L593 17.06L609.42 15.02L610.09 14.94L609.73 11.96L609.05 12.04ZM541.5 21.11L524.64 23.65L525.09 26.61L541.95 24.07L541.5 21.11ZM643.99 8.07L626.85 9.95L627.18 12.93L644.32 11.05L643.99 8.07ZM507.45 26.35L490.7 29.12L491.19 32.08L507.94 29.31L507.45 26.35ZM678.22 4.71L661.14 6.31L661.42 9.3L678.5 7.69L678.22 4.71ZM473.48 32.09L456.85 35.12L457.38 38.07L474.02 35.05L473.48 32.09ZM712.49 1.97L695.46 3.24L695.69 6.23L712.72 4.96L712.49 1.97ZM431.54 40.07Q426.93 41.23 422.76 42.44L423.6 45.32Q427.7 44.13 432.24 42.99L440.51 41.32L439.92 38.38L431.58 40.06L431.54 40.07ZM746.79 0.03L729.85 0.87L730 3.87L746.94 3.03L746.79 0.03ZM781.24 -0.77Q773 -0.76 764.01 -0.54L764.09 2.45Q773.04 2.24 781.24 2.23L781.24 -0.77ZM405.74 48.42Q395.23 52.96 390.15 58.05L392.27 60.17Q396.95 55.48 406.93 51.17L405.74 48.42ZM815.64 0.31Q807.66 -0.28 798.43 -0.55L798.34 2.45Q807.51 2.72 815.42 3.31L815.64 0.31ZM849.84 6Q842.91 3.71 832.85 2.18L832.4 5.15Q842.21 6.63 848.89 8.85L849.84 6ZM410.62 69.63L394.81 71.73L395.21 74.71L411.02 72.61L410.62 69.63ZM442.51 65.62L426.87 67.55L427.23 70.53L442.88 68.6L442.51 65.62ZM378.81 73.95L362.91 76.25L363.34 79.22L379.24 76.92L378.81 73.95ZM466.85 62.74L458.59 63.7L458.94 66.68L467.09 65.73L475.93 65.37L475.81 62.37L466.85 62.74ZM347.05 78.65L331.12 81.19L331.59 84.15L347.53 81.62L347.05 78.65ZM315.33 83.84L299.43 86.65L299.95 89.61L315.85 86.79L315.33 83.84ZM388.49 75.95Q392.87 81.68 403.27 86.87L404.61 84.19Q394.83 79.31 390.87 74.13L388.49 75.95ZM510.13 61.79Q501.77 61.74 492.8 61.9L492.85 64.9Q501.79 64.74 510.11 64.79L510.13 61.79ZM283.67 89.6L267.87 92.74L268.45 95.69L284.26 92.55L283.67 89.6ZM252.13 96.06L236.47 99.58L237.13 102.5L252.79 98.99L252.13 96.06ZM865.25 18.49Q865.02 17.32 864.51 16.22L861.78 17.47Q862.04 18.03 862.2 18.61Q862.89 21.24 861.57 24.41Q859.24 27.1 855.76 29.76L857.58 32.14Q861.42 29.2 864 26.19L864.14 26.02L864.23 25.82Q865.94 21.91 865.25 18.49ZM544.69 63.1Q536.56 62.48 527.46 62.15L527.35 65.15Q536.39 65.47 544.46 66.09L544.69 63.1ZM220.77 103.33L205.28 107.27L206.02 110.17L221.51 106.23L220.77 103.33ZM189.51 111.54L174.04 116L174.87 118.88L190.34 114.42L189.51 111.54ZM578.95 68.06Q571.5 66.2 561.77 64.88L561.36 67.85Q570.94 69.15 578.23 70.97L578.95 68.06ZM158.77 120.67L143.55 125.61L144.48 128.46L159.69 123.52L158.77 120.67ZM419.89 93.5Q427.93 96.1 437.32 98.25L437.99 95.33Q428.73 93.21 420.81 90.64L419.89 93.5ZM128.31 130.83L113.2 136.29L114.22 139.11L129.33 133.65L128.31 130.83ZM827.37 47.92Q836.28 44.33 842.96 40.99L841.62 38.3Q835.05 41.6 826.25 45.14L827.37 47.92ZM600.56 81.44Q600.01 77.67 595.35 74.51L593.66 76.99Q597.58 79.65 597.64 82.39Q597.64 82.41 597.64 82.44Q597.66 85.2 593.83 88.28L595.72 90.61Q600.45 86.8 600.63 82.78Q600.64 82.6 600.64 82.42Q600.64 81.93 600.56 81.44ZM98.19 141.99L83.4 147.86L84.5 150.64L99.3 144.77L98.19 141.99ZM795.43 59.56L811.58 53.9L810.59 51.07L794.43 56.73L795.43 59.56ZM455 101.68Q463.7 103.09 472.84 104.07L473.16 101.09Q464.09 100.12 455.48 98.72L455 101.68ZM68.49 154.02L53.51 160.45L54.69 163.21L69.67 156.78L68.49 154.02ZM763.53 70.92Q770.21 68.35 779.45 65.1L778.45 62.27Q769.17 65.53 762.45 68.12L763.53 70.92ZM490.78 105.54Q499.76 106.06 508.78 106.14L508.8 103.14Q499.86 103.06 490.95 102.55L490.78 105.54ZM38.88 166.95L24.23 173.65L25.48 176.38L40.13 169.68L38.88 166.95ZM571.52 101.17Q576.03 99.92 579.92 98.56L578.92 95.73Q575.16 97.05 570.79 98.26Q566.5 99.02 562.1 99.66L562.53 102.63Q567.01 101.97 571.38 101.2L571.45 101.19L571.52 101.17ZM526.76 105.88Q535.83 105.53 544.67 104.73L544.4 101.74Q535.64 102.53 526.64 102.88L526.76 105.88ZM733.34 85.47Q739.16 81.53 748.02 77.42L746.76 74.69Q737.68 78.91 731.66 82.99L733.34 85.47ZM6.71 193.11L17.15 180.2L15.85 177.49L-0.76 177.56L2.98 185.33L3.63 186.69L3.63 186.69L6.71 193.11ZM721.06 101.62Q721.21 99.22 722.3 96.89L719.58 95.62Q718.31 98.36 718.08 101.19Q717.94 102.92 718.2 104.69Q718.23 104.91 718.28 105.13Q719.14 108.85 725.23 111.37L726.37 108.6Q721.51 106.59 721.17 104.26Q720.97 102.93 721.06 101.62ZM759.09 113.97Q749.61 113.34 742.44 112.34L742.03 115.31Q749.31 116.33 758.89 116.97L759.09 113.97ZM793.06 115.03Q784.01 114.99 776.07 114.76L775.98 117.75Q783.96 117.99 793.05 118.03L793.06 115.03ZM826.98 114.67L810.01 114.98L810.07 117.98L827.03 117.67L826.98 114.67ZM860.88 113.53L843.91 114.18L844.02 117.18L861 116.53L860.88 113.53ZM894.63 111.89L877.77 112.77L877.93 115.76L894.79 114.89L894.63 111.89ZM928.67 109.86L911.78 110.91L911.96 113.9L928.86 112.85L928.67 109.86ZM956.17 108L945.63 108.73L945.84 111.72L956.38 110.99L962.86 110.52L962.65 107.53L956.17 108ZM996.51 104.98L979.63 106.28L979.86 109.27L996.74 107.97L996.51 104.98ZM1178.25 81.21L1179.18 89.76L1180.11 98.3L1193.98 88.15L1178.25 81.21ZM1030.54 102.21L1013.6 103.61L1013.85 106.6L1030.79 105.2L1030.54 102.21ZM1064.15 99.31L1047.28 100.78L1047.55 103.77L1064.42 102.29L1064.15 99.31ZM1098.02 96.22L1081.06 97.78L1081.35 100.77L1098.3 99.21L1098.02 96.22ZM1131.81 92.99L1114.93 94.62L1115.23 97.61L1132.11 95.98L1131.81 92.99ZM1165.77 89.6L1148.68 91.33L1148.99 94.31L1166.06 92.59L1165.77 89.6Z" fill="#000000" fill-opacity="1.000000" fill-rule="evenodd"/>
</svg>
