<svg width="358.000000" height="128.000000" viewBox="0 0 358 128" fill="none" xmlns="http://www.w3.org/2000/svg" xmlns:xlink="http://www.w3.org/1999/xlink">
	<desc>
			Created with Pixso.
	</desc>
	<defs/>
	<path id="Линия 1" d="M167.15 1.43C160.97 2.2 154.86 3.2 148.83 4.42L149.43 7.36C155.39 6.15 161.42 5.16 167.52 4.4L167.15 1.43ZM203.94 0.01Q195.29 -0.54 185.58 -0.13L185.71 2.87Q195.26 2.47 203.75 3L203.94 0.01ZM122.28 11.77Q117.78 14.12 114.88 17.5L117.16 19.45C118.82 17.51 120.96 15.85 123.58 14.47C126.21 13.51 129.03 12.57 132.05 11.67L131.19 8.8Q126.52 10.19 122.45 11.69L122.36 11.73L122.28 11.77ZM239.67 9.43C235.04 6.48 229.23 4.19 222.25 2.56L221.57 5.48Q231.54 7.81 238.06 11.96L239.67 9.43ZM110.33 35.04C111.1 40.45 113.33 46.04 117.01 51.8L119.54 50.18Q114.37 42.09 113.3 34.61L110.33 35.04ZM135.26 35.18C131.9 35.44 128.66 35.74 125.55 36.07L125.86 39.05C128.9 38.73 132.06 38.44 135.34 38.18C138.18 38.57 140.92 39.07 143.53 39.68L144.21 36.75C141.45 36.12 138.58 35.59 135.58 35.18L135.42 35.16L135.26 35.18ZM106.12 38.75C99.36 39.95 93.06 41.39 87.23 43.08L88.07 45.96Q96.66 43.48 106.65 41.71L106.12 38.75ZM252.54 33.78Q252.83 28.62 251.48 24.17L248.61 25.04Q249.79 28.94 249.55 33.5Q249.24 34.98 248.78 36.41Q247.91 39.08 246.52 41.58L249.14 43.04C250.73 40.18 251.86 37.17 252.52 34L252.54 33.89L252.54 33.78ZM68.99 49.75C63.06 52.44 57.4 55.59 52.01 59.2L53.68 61.69Q56.69 59.68 59.82 57.86Q64.87 54.91 70.23 52.49L68.99 49.75ZM174.31 54.18C171.23 49.71 166.68 45.88 160.66 42.69L159.26 45.34C164.85 48.3 169.04 51.81 171.83 55.88L174.31 54.18ZM36.75 71.2Q30.02 77.29 23.16 85.01L25.4 87.01Q32.16 79.41 38.76 73.42L36.75 71.2ZM128.65 65.38Q135.64 71.65 143.46 75.44L144.77 72.74Q137.33 69.14 130.65 63.15L128.65 65.38ZM233.58 59.89Q235.69 58.1 236.73 57.18L234.76 54.92C234.07 55.52 233.03 56.42 231.63 57.61C226.69 61.81 223.17 65.12 221.07 67.53L223.34 69.5C225.34 67.2 228.75 64 233.58 59.89ZM170.37 78.84C173.29 77.06 175.41 74.75 176.73 71.92L174.02 70.65C172.97 72.88 171.3 74.72 168.98 76.17C166.45 76.85 163.78 77.15 160.98 77.06L160.89 80.06C164.07 80.16 167.1 79.81 169.99 79.01L170.19 78.95L170.37 78.84ZM12.99 113.91L16.13 97.61L13.71 95.83L-0.91 103.7L4.83 107.92L7.25 109.7L12.99 113.91ZM216.08 93.91C215.65 90.77 215.61 87.83 215.96 85.07L212.98 84.7C212.6 87.71 212.65 90.92 213.11 94.32Q213.2 95 213.37 95.66Q214.35 99.66 217.89 103.02L219.96 100.85C217.72 98.72 216.43 96.4 216.08 93.91ZM253.54 113.14Q243.24 111.38 235.7 108.98L234.79 111.83Q242.53 114.3 253.03 116.09L253.54 113.14ZM290.32 116.88Q280.41 116.37 271.7 115.51L271.41 118.5Q280.19 119.36 290.17 119.87L290.32 116.88ZM342.45 110.39L342.94 118.98L343.43 127.56L357.81 118.14L342.45 110.39ZM327.26 117.59C320.94 117.65 314.77 117.62 308.76 117.51L308.71 120.51C314.75 120.62 320.94 120.65 327.29 120.59L327.26 117.59Z" fill="#000000" fill-opacity="1.000000" fill-rule="evenodd"/>
</svg>
